<svg width="237" height="66" viewBox="0 0 237 66" fill="none" xmlns="http://www.w3.org/2000/svg">
<path d="M73.48 48C73.08 48 72.88 47.8 72.88 47.4V16.608C72.88 16.208 73.08 16.008 73.48 16.008H80.272C80.672 16.008 80.872 16.208 80.872 16.608V29.328H83.848L85.432 23.352L86.872 16.32C86.904 16.224 86.976 16.152 87.088 16.104C87.216 16.04 87.4 16.008 87.64 16.008H94.552C94.952 16.008 95.152 16.208 95.152 16.608V19.608C95.152 19.784 95.128 19.96 95.08 20.136C95.032 20.296 94.992 20.44 94.96 20.568L92.032 27.6L89.992 31.44L92.08 35.232L95.608 43.248C95.672 43.36 95.72 43.48 95.752 43.608C95.784 43.736 95.8 43.92 95.8 44.16V47.4C95.8 47.8 95.6 48 95.2 48H88.048C87.936 48 87.792 47.984 87.616 47.952C87.456 47.904 87.36 47.8 87.328 47.64L85.552 40.032L84.232 35.688H80.872V47.4C80.872 47.8 80.672 48 80.272 48H73.48ZM106.751 48C106.367 48 106.047 47.864 105.791 47.592L100.991 42.792C100.719 42.536 100.583 42.216 100.583 41.832V16.608C100.583 16.208 100.783 16.008 101.183 16.008H107.975C108.375 16.008 108.575 16.208 108.575 16.608V41.112C108.575 41.432 108.735 41.592 109.055 41.592H112.991V16.608C112.991 16.208 113.191 16.008 113.591 16.008H120.383C120.783 16.008 120.983 16.208 120.983 16.608V47.4C120.983 47.8 120.783 48 120.383 48H106.751ZM132.139 48C131.739 48 131.539 47.8 131.539 47.4V22.392H127.339C126.939 22.392 126.739 22.192 126.739 21.792V16.608C126.739 16.208 126.939 16.008 127.339 16.008H143.731C144.131 16.008 144.331 16.208 144.331 16.608V21.792C144.331 22.192 144.131 22.392 143.731 22.392H139.531V47.4C139.531 47.8 139.331 48 138.931 48H132.139ZM156.251 48C155.883 48 155.563 47.864 155.291 47.592L150.491 42.792C150.219 42.536 150.083 42.216 150.083 41.832V22.152C150.083 21.784 150.219 21.464 150.491 21.192L155.291 16.392C155.563 16.136 155.883 16.008 156.251 16.008H165.683C166.067 16.008 166.387 16.136 166.643 16.392L171.443 21.192C171.715 21.464 171.851 21.784 171.851 22.152V41.832C171.851 42.216 171.715 42.536 171.443 42.792L166.643 47.592C166.387 47.864 166.067 48 165.683 48H156.251ZM159.083 41.592H162.851C163.523 41.592 163.859 41.144 163.859 40.248V23.76C163.859 22.848 163.523 22.392 162.851 22.392H159.083C158.427 22.392 158.099 22.848 158.099 23.76V40.248C158.099 41.144 158.427 41.592 159.083 41.592ZM178.199 48C177.799 48 177.599 47.8 177.599 47.4V16.608C177.599 16.208 177.799 16.008 178.199 16.008H184.991C185.391 16.008 185.591 16.208 185.591 16.608V29.328H188.567L190.151 23.352L191.591 16.32C191.623 16.224 191.695 16.152 191.807 16.104C191.935 16.04 192.119 16.008 192.359 16.008H199.271C199.671 16.008 199.871 16.208 199.871 16.608V19.608C199.871 19.784 199.847 19.96 199.799 20.136C199.751 20.296 199.711 20.44 199.679 20.568L196.751 27.6L194.711 31.44L196.799 35.232L200.327 43.248C200.391 43.36 200.439 43.48 200.471 43.608C200.503 43.736 200.519 43.92 200.519 44.16V47.4C200.519 47.8 200.319 48 199.919 48H192.767C192.655 48 192.511 47.984 192.335 47.952C192.175 47.904 192.079 47.8 192.047 47.64L190.271 40.032L188.951 35.688H185.591V47.4C185.591 47.8 185.391 48 184.991 48H178.199ZM205.734 48C205.334 48 205.134 47.8 205.134 47.4V25.152C205.134 24.944 205.214 24.704 205.374 24.432L211.062 16.368C211.238 16.128 211.494 16.008 211.83 16.008H219.774C220.126 16.008 220.382 16.128 220.542 16.368L226.254 24.432C226.414 24.656 226.494 24.896 226.494 25.152V47.4C226.494 47.8 226.294 48 225.894 48H219.102C218.702 48 218.502 47.8 218.502 47.4V37.2H213.15V47.4C213.15 47.8 212.95 48 212.55 48H205.734ZM215.814 32.04C217.286 32.04 218.278 31.72 218.79 31.08C219.318 30.424 219.582 29.184 219.582 27.36C219.582 25.536 219.318 24.304 218.79 23.664C218.278 23.008 217.286 22.68 215.814 22.68C214.358 22.68 213.366 23.008 212.838 23.664C212.326 24.304 212.07 25.536 212.07 27.36C212.07 29.184 212.326 30.424 212.838 31.08C213.366 31.72 214.358 32.04 215.814 32.04Z" fill="black"/>
<path d="M8.48 49C8.08 49 7.88 48.8 7.88 48.4V17.608C7.88 17.208 8.08 17.008 8.48 17.008H15.272C15.672 17.008 15.872 17.208 15.872 17.608V30.328H18.848L20.432 24.352L21.872 17.32C21.904 17.224 21.976 17.152 22.088 17.104C22.216 17.04 22.4 17.008 22.64 17.008H29.552C29.952 17.008 30.152 17.208 30.152 17.608V20.608C30.152 20.784 30.128 20.96 30.08 21.136C30.032 21.296 29.992 21.44 29.96 21.568L27.032 28.6L24.992 32.44L27.08 36.232L30.608 44.248C30.672 44.36 30.72 44.48 30.752 44.608C30.784 44.736 30.8 44.92 30.8 45.16V48.4C30.8 48.8 30.6 49 30.2 49H23.048C22.936 49 22.792 48.984 22.616 48.952C22.456 48.904 22.36 48.8 22.328 48.64L20.552 41.032L19.232 36.688H15.872V48.4C15.872 48.8 15.672 49 15.272 49H8.48Z" fill="black"/>
<path d="M27 53C26.1716 53 25.5 53.6716 25.5 54.5C25.5 55.3284 26.1716 56 27 56V53ZM27 56H37V53H27V56Z" fill="white"/>
<path d="M37.75 44.9943C37.75 44.1659 37.0784 43.4943 36.25 43.4943C35.4216 43.4943 34.75 44.1659 34.75 44.9943H37.75ZM34.75 44.9943V55.9943H37.75V44.9943H34.75Z" fill="white"/>
<path d="M11 12C11.8284 12 12.5 11.3284 12.5 10.5C12.5 9.67157 11.8284 9 11 9V12ZM11 9H1V12H11V9Z" fill="white"/>
<path d="M0.25 20.0057C0.25 20.8341 0.921573 21.5057 1.75 21.5057C2.57843 21.5057 3.25 20.8341 3.25 20.0057H0.25ZM3.25 20.0057L3.25 8.99432H0.25L0.25 20.0057H3.25Z" fill="white"/>
</svg>
